<?xml version="1.0" encoding="utf-8"?>
<!-- Generator: Adobe Illustrator 17.0.0, SVG Export Plug-In . SVG Version: 6.00 Build 0)  -->
<!DOCTYPE svg PUBLIC "-//W3C//DTD SVG 1.1//EN" "http://www.w3.org/Graphics/SVG/1.1/DTD/svg11.dtd">
<svg version="1.1" id="Layer_1" xmlns="http://www.w3.org/2000/svg" xmlns:xlink="http://www.w3.org/1999/xlink" x="0px" y="0px"
	 width="291.576px" height="245.26px" viewBox="0 0 291.576 245.26" enable-background="new 0 0 291.576 245.26"
	 xml:space="preserve">
<g>
	<path d="M30.518,50.075c1.501,0.598,2.78,0.382,3.857-0.715c2.424,2.524,4.995,4.782,7.122,7.462c0,15.902,0,31.815,0,47.747
		c-0.317,0.303-0.634,0.606-0.935,0.893c0,0.664,0,1.303,0,1.754c0.628,0.628,1.159,1.159,1.703,1.703c0.573,0,1.205,0,1.714,0
		c0.583-0.582,1.089-1.088,1.601-1.6c0-0.608,0-1.243,0-1.878c-0.322-0.316-0.635-0.624-0.946-0.93c0-16.324,0-32.642,0-49.056
		c-0.31-0.353-0.647-0.774-1.024-1.158c-1.008-1.028-2.033-2.04-3.051-3.058c-0.801-0.801-1.603-1.603-2.503-2.503
		c10.905,0,21.652,0,32.434,0c0.382-0.327,0.782-0.63,1.136-0.979c1.534-1.517,3.055-3.047,4.559-4.552c6.751,0,13.468,0,20.176,0
		c0.603,0.603,1.196,1.196,1.791,1.79c0,0.4,0,0.8,0,1.055c0.605,0.605,1.138,1.137,1.68,1.68c0.586,0,1.219,0,1.931,0
		c0.264-0.3,0.552-0.629,0.832-0.947c1.949,0,3.865,0,5.851,0c0.346-0.297,0.749-0.598,1.1-0.949
		c10.073-10.064,20.14-20.133,30.208-30.201c0.421-0.421,0.841-0.842,1.214-1.216c6.788,0,13.502,0,20.133,0
		c0.652,0.634,1.253,1.218,1.855,1.803c0,0.403,0,0.8,0,1.187c0.519,0.519,1.028,1.028,1.544,1.543c0.632,0,1.27,0,2.048,0
		c0.243-0.278,0.555-0.634,0.815-0.931c6.161,0,12.234,0,18.345,0c0,2.45,0,4.878,0,7.264c-0.314,0.411-0.617,0.809-0.885,1.16
		c-0.148,1.027,0.015,1.857,0.775,2.604c0.739,0.726,1.555,0.772,2.245,0.699c1.037-0.386,1.55-1.05,1.982-1.839
		c0-0.435,0-0.915,0-1.423c-0.311-0.407-0.635-0.832-0.928-1.215c0-2.431,0-4.823,0-7.244c12.457,0,24.885,0,37.301,0
		c5.716,5.715,11.429,11.427,17.142,17.139c0,5.516,0,11.034,0,16.551c-3,3-5.998,5.998-8.996,8.996c-0.4,0-0.8,0-1.2,0
		c-0.509,0.509-1.018,1.019-1.535,1.537c0,0.659,0,1.327,0,1.896c0.558,0.582,1.054,1.1,1.532,1.598c0.666,0,1.304,0,1.932,0
		c0.32-0.32,0.632-0.632,0.912-0.912c0.381,0,0.731,0,0.978,0c6.966,6.966,13.865,13.865,20.768,20.768c0,5.098,0,10.214,0,15.33
		c-0.321,0.317-0.637,0.629-0.948,0.937c0,0.646,0,1.286,0,1.924c0.511,0.511,1.02,1.02,1.531,1.531c0.667,0,1.335,0,1.9,0
		c0.584-0.56,1.101-1.057,1.596-1.532c0-0.669,0-1.306,0-1.932c-0.322-0.322-0.633-0.633-0.947-0.947c0-5.517,0-11.036,0-16.651
		c-0.309-0.354-0.641-0.781-1.019-1.16c-6.472-6.481-12.948-12.958-19.429-19.43c-0.746-0.746-1.42-1.576-2.374-2.096
		c0.792-0.792,1.555-1.555,2.319-2.319c1.81-1.81,3.617-3.624,5.432-5.428c0.462-0.459,0.713-0.966,0.681-1.644
		c-0.045-0.957-0.011-1.917-0.011-2.868c0.205-0.206,0.402-0.404,0.6-0.602c4.4,0,8.799,0,13.208,0
		c0.475,0.478,0.954,0.959,1.354,1.362c1.054,0.414,2.024,0.451,3.127-0.092c0.371-0.371,0.88-0.88,1.314-1.314
		c0.407-1.047,0.455-2.017-0.107-3.137c-0.355-0.355-0.864-0.864-1.308-1.307c-1.038-0.397-2.008-0.457-3.026-0.097
		c-0.462,0.494-0.924,0.988-1.319,1.411c-4.667,0-9.251,0-13.843,0c0-3.534-0.023-7.013,0.015-10.491
		c0.01-0.925-0.267-1.611-0.929-2.268c-5.676-5.636-11.322-11.303-16.984-16.954c-0.352-0.351-0.755-0.651-1.139-0.979
		c-20.057,0-40.084,0-60.237,0c-0.243-0.286-0.524-0.618-0.808-0.952c-0.411,0-0.805,0-1.175,0c-0.617-0.617-1.228-1.195-1.8-1.81
		c-0.535-0.574-1.141-0.825-1.948-0.822c-6.319,0.027-12.639,0.015-18.958,0.015c-0.915,0-1.83,0-2.787,0
		c-0.374,0.321-0.776,0.622-1.127,0.973c-10.157,10.149-20.31,20.303-30.462,30.456c-0.335,0.335-0.667,0.673-0.935,0.943
		c-1.617,0-3.13,0-4.691,0c-0.284-0.31-0.58-0.633-0.867-0.947c-0.424,0-0.821,0-1.206,0c-0.69-0.69-1.372-1.366-2.047-2.049
		c-0.399-0.404-0.858-0.588-1.441-0.587c-7.317,0.012-14.635,0.008-22.018,0.008c-0.35,0.299-0.751,0.601-1.104,0.95
		c-1.534,1.519-3.054,3.052-4.564,4.565c-11.463,0-22.901,0-34.369,0c-0.462-0.472-0.936-0.957-1.238-1.265
		c-2.13-0.99-3.46-0.057-4.553,1.392c-0.392,0.981-0.414,1.95,0.097,3.014C29.587,49.137,30.094,49.647,30.518,50.075z"/>
	<path d="M170.77,212.382c0.327,0.337,0.633,0.652,0.929,0.956c0.656,0,1.295,0,1.761,0c0.62-0.62,1.152-1.152,1.755-1.754
		c0-0.279,0-0.671,0-1.032c3.876-3.876,7.696-7.75,11.576-11.561c3.864-3.795,7.531-7.79,11.59-11.39
		c1.374-1.219,2.622-2.581,3.909-3.895c0.372-0.38,0.683-0.821,0.998-1.205c0-12.701,0-25.333,0-37.993
		c1.023-0.685,1.386-1.643,1.099-2.98c-0.315-0.371-0.714-0.84-1.138-1.339c0-0.596,0-1.232,0-1.937
		c-0.298-0.348-0.599-0.749-0.95-1.101c-4.152-4.163-8.311-8.318-12.469-12.476c-0.335-0.335-0.672-0.667-0.94-0.932
		c0-7.54,0-14.972,0-22.432c1.023-0.685,1.387-1.643,1.098-2.98c-0.315-0.371-0.713-0.84-1.11-1.307c0-2.228,0-4.464,0-6.6
		c0.355-0.468,0.657-0.867,0.946-1.248c0-0.505,0-0.984,0-1.379c-0.416-0.902-1.055-1.487-1.788-1.842
		c-1.074-0.164-1.888,0.07-2.613,0.841c-0.679,0.722-0.679,1.517-0.616,2.412c0.285,0.373,0.589,0.771,0.934,1.221
		c0,2.156,0,4.395,0,6.589c-0.422,0.495-0.823,0.965-1.101,1.291c-0.365,1.447,0.187,2.376,1.105,3.077
		c0,7.561,0.014,15.041-0.019,22.52c-0.004,0.902,0.299,1.541,0.914,2.153c4.51,4.484,9,8.987,13.5,13.486c0,0.236,0,0.475,0,0.668
		c-0.423,0.496-0.824,0.966-1.226,1.438c0.034,0.548-0.062,1.111,0.128,1.55c0.237,0.546,0.711,0.99,1.073,1.467
		c0,12.229,0,24.46,0,36.686c-8.69,8.561-17.139,17.333-25.974,25.715c-0.432,0.409-0.842,0.84-1.254,1.252
		c-0.431,0-0.826,0-1.249,0c-0.296,0.314-0.597,0.633-0.883,0.936c-19.542,0-39.059,0-58.57,0
		c-4.191-4.191-8.377-8.377-12.605-12.605c0-0.386,0-0.815,0-1.129c-0.573-0.596-1.071-1.113-1.548-1.609c-0.668,0-1.305,0-1.931,0
		c-0.52,0.52-1.029,1.029-1.513,1.513c0,0.694,0,1.363,0,2.162c0.28,0.238,0.612,0.519,0.9,0.764c0,1.57,0,3.084,0,4.431
		c-2.211,2.211-4.327,4.327-6.454,6.454c-16.265,0-32.577,0-48.594,0c-2.046-2.046-3.932-3.932-5.834-5.834
		c0.882-1,0.818-2.202,0.413-3.295c-0.608-0.608-1.114-1.114-1.585-1.586c-0.982-0.466-1.945-0.353-2.773-0.03
		c-0.589,0.589-1.095,1.095-1.561,1.56c-0.47,0.992-0.358,1.955,0.051,3.001c0.919,0.832,1.941,1.699,2.896,2.633
		c1.916,1.873,3.792,3.787,5.694,5.675c0.381,0.378,0.807,0.713,1.159,1.021c17.215,0,34.333,0,51.457,0
		c0.302-0.225,0.641-0.418,0.908-0.684c2.243-2.225,4.47-4.467,6.711-6.695c0.465-0.462,0.694-0.978,0.666-1.65
		c-0.041-0.985-0.011-1.973-0.011-3.09c3.792,3.792,7.474,7.453,11.126,11.144c0.674,0.682,1.377,0.995,2.362,0.994
		c18.918-0.026,37.837-0.019,56.755-0.019C169.51,212.382,170.145,212.382,170.77,212.382z"/>
	<path d="M224.838,164.613c0.012-0.166,0.023-0.243,0.023-0.321c0.001-25.193-0.002-50.386,0.012-75.579
		c0-0.72-0.245-1.255-0.742-1.739c-0.974-0.948-1.94-1.906-2.883-2.885c-0.541-0.562-1.132-0.841-1.945-0.832
		c-3.235,0.039-6.471,0.016-9.663,0.016c-1.309-1.216-2.433-2.557-3.738-3.6c-14.583,0-29.058,0.008-43.532-0.019
		c-0.907-0.002-1.538,0.315-2.147,0.928c-3.237,3.266-6.5,6.507-9.744,9.767c-0.375,0.377-0.682,0.821-0.997,1.205
		c0,1.902,0,3.735,0,5.542c-1.206,1.206-1.206,1.206-1.138,2.892c0.815,1.252,1.713,2.36,3.712,1.901
		c0.506-0.507,1.18-1.181,1.771-1.773c0-0.645,0-1.124,0-1.688c-0.358-0.424-0.757-0.897-1.164-1.379c0-1.432,0-2.901,0-4.228
		c3.393-3.393,6.697-6.697,10.013-10.013c13.955,0,27.947,0,41.902,0c1.313,1.194,2.408,2.566,3.756,3.581c3.602,0,7.121,0,10.554,0
		c0.973,0.973,1.902,1.902,2.843,2.843c0,24.675,0,49.385,0,74.084c-4.451,4.451-8.893,8.887-13.325,13.334
		c-0.404,0.405-0.746,0.872-1.082,1.269c0,11.999,0,23.91,0,35.754c-5.754,5.754-11.464,11.464-17.18,17.18
		c-12.377,0-24.772,0-37.162,0c-0.317-0.317-0.628-0.628-0.947-0.947c-0.63,0-1.268,0-1.833,0c-0.565,0.565-1.097,1.097-1.636,1.637
		c0,0.602,0,1.237,0,1.843c0.53,0.533,1.037,1.044,1.542,1.551c0.644,0,1.284,0,2.095,0c0.247-0.25,0.579-0.586,0.947-0.958
		c12.361,0,24.798-0.009,37.234,0.018c0.902,0.002,1.54-0.301,2.152-0.916c5.644-5.667,11.306-11.315,16.954-16.977
		c0.375-0.376,0.683-0.821,0.996-1.202c0-11.982,0-23.893,0-35.781c4.49-4.49,8.959-8.956,13.422-13.429
		C224.258,165.342,224.558,164.94,224.838,164.613z"/>
	<path d="M245.547,180.37c-4.517-4.473-9.001-8.978-13.489-13.465c0-28.73,0-57.442,0-86.152c-0.661-1.043-3.814-4.14-4.815-4.708
		c-5.859,0-11.77,0-17.651,0c-0.878-0.878-1.754-1.701-2.566-2.582c-0.65-0.706-1.374-1.008-2.355-1.006
		c-12.877,0.027-25.754,0.018-38.631,0.018c-1.557,0-3.115,0-4.734,0c-0.353,0.302-0.755,0.603-1.107,0.954
		c-3.766,3.754-7.524,7.516-11.284,11.276c-1.951,1.951-3.894,3.911-5.859,5.848c-0.531,0.524-0.784,1.093-0.762,1.853
		c0.044,1.557,0.013,3.117,0.013,4.604c-0.438,0.517-0.838,0.989-1.198,1.414c0,0.564,0,1.043,0,1.513
		c0.492,0.862,1.158,1.543,1.962,2.003c1.852,0.402,2.749-0.748,3.534-1.978c0-0.545,0-1.019,0-1.563
		c-0.373-0.44-0.77-0.91-1.163-1.373c0-1.432,0-2.868,0-4.264c5.738-5.739,11.449-11.451,17.162-17.165c13.989,0,27.985,0,41.945,0
		c1.366,1.172,2.406,2.656,3.914,3.623c5.943,0,11.855,0,17.727,0c0.938,0.935,1.844,1.838,2.75,2.741c0,28.713,0,57.427,0,86.239
		c0.307,0.352,0.638,0.778,1.016,1.157c4.461,4.471,8.929,8.936,13.374,13.38c0,1.951,0,3.868,0,5.616
		c-1.017,1.017-1.945,1.945-2.884,2.884c-2.659,0-5.371,0-8.146,0c-0.274-0.306-0.565-0.632-0.821-0.917c-0.696,0-1.332,0-1.953,0
		c-0.524,0.524-1.033,1.033-1.543,1.543c0,0.638,0,1.277,0,1.788c0.596,0.596,1.128,1.128,1.67,1.67c0.59,0,1.223,0,1.898,0
		c0.288-0.312,0.584-0.633,0.873-0.946c3.142,0,6.259,0,9.358,0c0.848-0.48,4.166-3.792,4.677-4.676c0-2.344-0.03-4.703,0.015-7.06
		C246.492,181.713,246.21,181.026,245.547,180.37z"/>
	<path d="M235.563,69.606c-0.529-0.532-1.107-0.747-1.86-0.744c-5.399,0.023-10.798,0.012-16.197,0.012c-2.636,0-5.272,0-7.857,0
		c-1.323-1.208-2.438-2.559-3.739-3.6c-0.354,0-0.592,0-0.831,0c-14.238,0-28.476,0.008-42.713-0.019
		c-0.907-0.002-1.535,0.321-2.145,0.932c-8.05,8.069-16.114,16.125-24.169,24.189c-0.351,0.352-0.651,0.756-0.979,1.141
		c0,1.897,0,3.766,0,5.51c-0.446,0.541-0.814,0.988-1.09,1.323c-0.428,1.948,0.728,2.839,1.839,3.541
		c1.382,0.355,2.19-0.221,2.974-1.035c0.69-0.715,0.669-1.517,0.601-2.473c-0.352-0.413-0.752-0.882-1.16-1.36
		c0-1.414,0-2.851,0-4.255c8.136-8.137,16.251-16.253,24.368-24.371c13.99,0,27.987,0,41.926,0c1.403,1.155,2.408,2.679,3.95,3.623
		c8.33,0,16.641,0,24.867,0c3.363,3.363,6.669,6.669,9.981,9.981c0,3.098,0,6.214,0,9.321c-2.159,2.159-4.307,4.31-6.459,6.457
		c-0.419,0.418-0.741,0.855-0.737,1.498c0.017,2.555,0.007,5.11,0.007,7.599c0.415,0.872,1.14,1.379,1.732,2
		c0.607,0.637,1.241,1.248,1.865,1.872c0,1.117,0,2.236,0,3.336c0.175,0.267,0.304,0.555,0.512,0.765
		c2.338,2.356,4.688,4.701,7.037,7.046c0.338,0.338,0.741,0.517,1.235,0.499c0.557-0.02,1.115-0.005,1.658-0.005
		c0.326,0.326,0.638,0.638,0.954,0.954c0.633,0,1.271,0,1.816,0c0.576-0.576,1.108-1.108,1.649-1.649c0-0.598,0-1.232,0-1.82
		c-0.537-0.545-1.042-1.057-1.539-1.561c-0.651,0-1.29,0-1.925,0c-0.315,0.315-0.626,0.626-0.923,0.923c-0.364,0-0.712,0-1.026,0
		c-2.126-2.126-4.218-4.218-6.327-6.327c0-0.822-0.037-1.662,0.011-2.497c0.043-0.759-0.213-1.338-0.753-1.856
		c-0.978-0.938-1.922-1.911-2.841-2.83c0-1.978,0-3.893,0-5.792c2.052-2.052,4.094-4.083,6.12-6.129
		c0.403-0.407,0.747-0.872,1.063-1.246c0-3.99,0-7.87,0-11.816c-0.263-0.347-0.461-0.682-0.727-0.949
		C242.346,76.395,238.945,73.01,235.563,69.606z"/>
	<path d="M279.742,199.948c-0.405-0.403-0.887-0.882-1.365-1.359c0-13.525,0-27.043,0-40.544c0.7-0.844,0.609-1.672,0.028-2.428
		c0-35.259,0-70.448,0-105.608c0.48-0.48,0.933-0.933,1.227-1.227c0.589-1.166,0.509-2.162,0.099-3.152
		c-0.481-0.481-0.962-0.962-1.311-1.311c-1.137-0.548-2.134-0.495-3.125-0.079c-0.481,0.481-0.962,0.962-1.314,1.314
		c-0.551,1.133-0.493,2.13-0.083,3.122c0.452,0.453,0.905,0.905,1.32,1.32c0,35.102,0,70.167,0,105.249c-5.908,0-11.775,0-17.651,0
		c-0.651-0.939-1.584-1.058-2.545-0.917c-0.832,0.403-1.422,0.991-1.82,1.818c-0.135,0.919,0.033,1.747,0.792,2.494
		c0.739,0.727,1.556,0.768,2.496,0.673c0.376-0.289,0.771-0.592,1.144-0.879c5.867,0,11.733,0,17.595,0c0,13.434,0,26.821,0,40.179
		c-0.482,0.482-0.934,0.934-1.259,1.259c-0.542,1.136-0.483,2.133-0.062,3.122c0.481,0.481,0.962,0.962,1.279,1.279
		c1.13,0.578,2.1,0.516,3.14,0.122c0.442-0.442,0.951-0.951,1.299-1.299C280.208,201.969,280.141,200.999,279.742,199.948z"/>
	<path d="M20.996,48.718c0.488-1.073,0.458-2.042,0.168-2.779c-0.676-0.676-1.208-1.208-1.759-1.759
		c-0.869-0.422-1.801-0.322-2.788,0.037c-0.454,0.454-0.963,0.963-1.312,1.312c-0.57,1.126-0.516,2.096-0.104,3.164
		c0.394,0.39,0.876,0.867,1.357,1.343c0,48.709,0,97.414-0.003,146.118c0,0.031-0.036,0.068-0.063,0.091
		c-0.021,0.018-0.055,0.019-0.053,0.019c-1.088-1.08-2.164-2.15-3.248-3.225c0-0.312,0-0.63,0-0.866
		c-0.41-0.857-1.001-1.444-1.84-1.851c-0.902-0.124-1.734,0.027-2.481,0.79c-0.723,0.738-0.78,1.553-0.689,2.397
		c0.418,0.833,0.995,1.434,1.95,1.875c0.174,0,0.525,0,0.827,0c1.484,1.484,2.926,2.926,4.368,4.368
		c-0.583,1.064-0.595,2.147-0.113,3.248c0.481,0.481,0.962,0.961,1.308,1.307c1.102,0.534,2.072,0.485,3.104,0.088
		c0.448-0.448,0.957-0.957,1.303-1.303c0.574-1.13,0.516-2.099,0.106-3.167c-0.395-0.391-0.878-0.869-1.325-1.311
		c0-49.573,0-99.108,0-148.611C20.196,49.519,20.648,49.066,20.996,48.718z"/>
	<path d="M153.933,104.873c-16.715,0-33.43,0-50.195,0c-0.327,0.268-0.71,0.531-1.034,0.854c-8.12,8.11-16.23,16.23-24.358,24.333
		c-0.595,0.593-0.848,1.218-0.846,2.06c0.021,10.396,0.014,20.793,0.014,31.187c-3.282,3.282-6.565,6.56-9.839,9.846
		c-0.351,0.352-0.652,0.754-0.96,1.113c0,5.011,0.004,9.967-0.005,14.922c-0.001,0.54,0.202,0.957,0.572,1.326
		c1.078,1.071,2.157,2.141,3.222,3.225c0.462,0.47,0.987,0.669,1.654,0.656c1.675-0.033,3.351-0.011,5.008-0.011
		c0.332,0.337,0.641,0.649,0.946,0.959c0.645,0,1.285,0,1.77,0c0.61-0.61,1.142-1.142,1.685-1.685c0-0.583,0-1.216,0-1.752
		c-0.558-0.579-1.055-1.096-1.532-1.592c-0.667,0-1.304,0-1.931,0c-0.321,0.321-0.632,0.632-0.911,0.911c-1.581,0-3.129,0-4.545,0
		c-0.987-0.987-1.888-1.888-2.798-2.798c0-4.284,0-8.598,0-12.897c3.267-3.267,6.521-6.516,9.767-9.774
		c0.379-0.38,0.711-0.807,1.017-1.157c0-10.815,0-21.531,0-32.245c8.116-8.116,16.231-16.231,24.363-24.362
		c7.377,0,14.772,0,22.168,0c9.037,0,18.075-0.004,27.112,0.009c0.65,0.001,1.213-0.103,1.684-0.579
		c1.097-1.109,2.2-2.211,3.308-3.308c0.408-0.404,0.595-0.874,0.563-1.45c-0.025-0.434-0.005-0.87-0.005-1.325
		c1.017-0.696,1.403-1.65,1.182-2.744c-0.455-0.999-1.194-1.607-2.035-2.12c-0.47,0-0.949,0-1.591,0
		c-0.594,0.594-1.267,1.267-1.79,1.79c-0.287,1.431,0.091,2.39,1.086,3.055c0,0.314,0,0.582,0,0.787
		C155.733,103.058,154.833,103.965,153.933,104.873z"/>
	<path d="M268.533,49.639c0,24.668,0,49.374,0,74.076c-8.062,8.062-16.12,16.118-24.173,24.18c-0.379,0.38-0.712,0.807-1.02,1.158
		c0,5.614,0,11.132,0,16.561c-0.359,0.487-0.676,0.916-0.91,1.234c-0.173,1.124,0.064,1.937,0.834,2.661
		c0.722,0.679,1.517,0.678,2.303,0.622c0.845-0.411,1.436-0.998,1.826-1.812c0.175-1.031-0.023-1.977-0.913-2.587
		c0-5.2,0-10.312,0-15.404c8.077-8.077,16.129-16.139,24.2-24.182c0.679-0.677,0.997-1.378,0.996-2.359
		c-0.024-21.669-0.018-43.339-0.018-65.008c0-3.077,0-6.154,0-9.259c0.476-0.465,0.961-0.939,1.444-1.411
		c0.079-0.494,0.222-0.982,0.218-1.468c-0.004-0.483-0.155-0.965-0.232-1.389c-0.546-0.554-1.051-1.066-1.472-1.493
		c-1.06-0.421-2.029-0.448-3.112,0.077c-0.388,0.387-0.897,0.895-1.329,1.326c-0.41,1.051-0.454,2.02-0.092,3.03
		C267.561,48.668,268.039,49.145,268.533,49.639z"/>
	<path d="M162.391,58.057c-0.901-0.001-1.539,0.299-2.153,0.913c-10.454,10.472-20.92,20.932-31.379,31.4
		c-0.351,0.352-0.651,0.755-0.979,1.138c0,1.9,0,3.768,0,5.484c-0.466,0.599-0.842,1.083-1.095,1.409
		c-0.397,1.956,0.777,2.796,1.956,3.57c0.54,0,1.014,0,1.457,0c1.289-0.832,2.376-1.741,1.951-3.644
		c-0.297-0.348-0.698-0.818-1.116-1.308c0-1.4,0-2.838,0-4.237c10.54-10.541,21.059-21.06,31.581-31.583c18.384,0,36.78,0,55.171,0
		c0.315,0.315,0.626,0.626,0.947,0.947c0.628,0,1.265,0,1.847,0c0.555-0.555,1.087-1.088,1.626-1.626c0-0.606,0-1.241,0-1.86
		c-0.525-0.525-1.034-1.034-1.543-1.543c-0.64,0-1.28,0-1.92,0c-0.311,0.311-0.622,0.622-0.959,0.96c-0.37,0-0.766,0-1.163,0
		C198.544,58.075,180.468,58.081,162.391,58.057z"/>
	<path d="M121.769,90.262c-0.404,0.405-0.745,0.872-1.083,1.272c0,1.92,0,3.753,0,5.615c-1.022,0.683-1.383,1.643-1.129,2.854
		c0.806,1.235,1.702,2.347,3.702,1.886c0.506-0.507,1.18-1.181,1.771-1.773c0-0.644,0-1.124,0-1.689
		c-0.358-0.424-0.757-0.896-1.164-1.378c0-1.434,0-2.902,0-4.334c9.312-9.312,18.585-18.591,27.871-27.857
		c0.616-0.614,0.911-1.255,0.909-2.155c-0.028-10.558-0.018-21.117-0.018-31.676c0-0.635,0-1.271,0-1.896
		c0.337-0.327,0.652-0.633,0.956-0.928c0-0.656,0-1.295,0-1.93c-0.513-0.513-1.022-1.022-1.526-1.526c-0.674,0-1.342,0-1.889,0
		c-0.596,0.567-1.115,1.061-1.607,1.53c0,0.675,0,1.311,0,1.935c0.324,0.324,0.635,0.635,0.947,0.946c0,11.119,0,22.238,0,33.357
		C140.26,71.763,131.011,81.009,121.769,90.262z"/>
	<path d="M47.757,125.242c0.607,0.607,1.139,1.139,1.681,1.682c0.585,0,1.218,0,1.899,0c0.283-0.31,0.577-0.632,0.862-0.944
		c3.146,0,6.26,0,9.447,0c0.344-0.294,0.746-0.595,1.098-0.946c8.087-8.078,16.168-16.162,24.249-24.243c6.239,0,12.474,0,18.661,0
		c0.498,0.425,0.968,0.826,1.277,1.089c2.015,0.484,2.887-0.706,3.679-1.917c0-0.55,0-1.024,0-1.462
		c-0.833-1.291-1.743-2.376-3.643-1.951c-0.35,0.298-0.819,0.699-1.313,1.121c-6.591,0-13.226,0-19.957,0
		c-0.352,0.308-0.778,0.641-1.158,1.021c-8.059,8.05-16.112,16.106-24.151,24.145c-2.763,0-5.509,0-8.335,0
		c-0.27-0.298-0.562-0.621-0.824-0.91c-0.68,0-1.315,0-1.924,0c-0.531,0.529-1.041,1.036-1.549,1.542
		C47.757,124.112,47.757,124.752,47.757,125.242z"/>
	<path d="M143.212,165.663c3.266,3.237,6.506,6.5,9.766,9.743c0.378,0.376,0.82,0.685,1.2,0.998c9.263,0,18.455,0,27.66,0
		c0.643,0.938,1.576,1.062,2.553,0.918c0.821-0.392,1.407-0.983,1.796-1.782c0.153-0.944-0.007-1.773-0.768-2.521
		c-0.737-0.724-1.552-0.782-2.503-0.68c-0.368,0.282-0.764,0.587-1.207,0.926c-8.723,0-17.52,0-26.187,0
		c-3.397-3.397-6.728-6.728-10.071-10.071c0-6.187,0-12.419,0-18.628c1.204-1.203,1.204-1.203,1.147-2.889
		c-0.814-1.254-1.721-2.347-3.704-1.914c-0.511,0.511-1.185,1.184-1.636,1.636c-0.396,1.523,0.053,2.455,1.051,3.139
		c0,6.346,0.017,12.661-0.019,18.976C142.284,164.419,142.597,165.054,143.212,165.663z"/>
	<path d="M152.629,144.647c0.432-0.509,0.833-0.98,1.12-1.318c0.424-1.975-0.729-2.865-1.851-3.567
		c-1.373-0.336-2.181,0.236-2.965,1.048c-0.692,0.717-0.651,1.52-0.602,2.458c0.364,0.427,0.763,0.896,1.186,1.393
		c0,1.795,0,3.631,0,5.485c0.255,0.325,0.483,0.685,0.778,0.98c5.76,5.772,11.531,11.534,17.288,17.308
		c0.526,0.527,1.091,0.767,1.85,0.764c6.516-0.023,13.032-0.013,19.457-0.013c0.488,0.36,0.917,0.677,1.233,0.909
		c1.127,0.175,1.939-0.065,2.662-0.834c0.679-0.722,0.677-1.517,0.622-2.303c-0.411-0.845-0.998-1.436-1.812-1.826
		c-1.031-0.175-1.977,0.023-2.588,0.915c-6.477,0-12.867,0-19.223,0c-5.736-5.735-11.445-11.444-17.156-17.154
		C152.629,147.461,152.629,146.022,152.629,144.647z"/>
	<path d="M80.154,60.596c0.31,0.308,0.622,0.617,0.959,0.953c0,0.253,0.036,0.535-0.006,0.804c-0.181,1.166,0.348,1.972,1.152,2.773
		c10.227,10.188,20.428,20.402,30.635,30.61c0.22,0.22,0.441,0.441,0.616,0.616c0,0.289,0,0.488,0,0.629
		c-0.436,0.544-0.843,1.053-1.251,1.561c-0.237,1.242,0.387,2.032,1.188,2.818c0.711,0.697,1.517,0.666,2.359,0.61
		c1.269-0.823,2.361-1.731,1.944-3.641c-0.289-0.34-0.69-0.811-1.121-1.317c0-0.58,0-1.221,0-1.957
		c-0.309-0.352-0.642-0.779-1.021-1.158c-10.458-10.465-20.92-20.925-31.372-31.377c0-0.334,0-0.653,0-0.968
		c0.315-0.315,0.626-0.626,0.924-0.924c0-0.682,0-1.35,0-1.895c-0.583-0.583-1.089-1.089-1.601-1.602c-0.607,0-1.242,0-1.862,0
		c-0.525,0.525-1.034,1.034-1.543,1.543C80.154,59.313,80.154,59.953,80.154,60.596z"/>
	<path d="M264.587,198.473c-1.013-0.472-2.006-0.297-3.088,0.131c-0.375,0.391-0.816,0.851-1.246,1.299c-12.809,0-25.597,0-38.22,0
		c-1.178-1.178-2.273-2.273-3.441-3.441c0-0.276,0-0.669,0-0.926c-0.57-0.604-1.061-1.125-1.528-1.62c-0.675,0-1.31,0-1.934,0
		c-0.521,0.521-1.03,1.03-1.543,1.543c0,0.633,0,1.272,0,1.816c0.577,0.576,1.109,1.108,1.669,1.668c0.303,0,0.663,0,1.086,0
		c1.085,1.085,2.148,2.113,3.169,3.182c0.599,0.628,1.248,0.918,2.15,0.916c12.867-0.027,25.734-0.018,38.614-0.018
		c0.472,0.477,0.949,0.96,1.345,1.36c1.056,0.416,2.025,0.452,3.127-0.09c0.37-0.371,0.879-0.879,1.318-1.318
		c0.399-1.041,0.458-2.011-0.117-3.14C265.605,199.49,265.096,198.982,264.587,198.473z"/>
	<path d="M116.751,161.019c4.443-4.433,8.882-8.87,13.313-13.316c0.375-0.376,0.68-0.821,0.994-1.206c0-0.703,0-1.335,0-1.838
		c0.453-0.576,0.832-1.059,1.15-1.463c0-0.585,0-1.059,0-1.499c-0.833-1.29-1.743-2.376-3.376-2.011
		c-1.001,0.455-1.609,1.193-2.12,2.037c0,0.469,0,0.948,0,1.512c0.359,0.424,0.759,0.896,1.194,1.409c0,0.172,0,0.411,0,0.645
		c-4.523,4.522-9.045,9.043-13.58,13.576c-7.492,0-15.007,0-22.558,0c-0.176-0.184-0.35-0.41-0.567-0.58
		c-0.202-0.157-0.452-0.254-0.69-0.382c-1.886-0.363-3.573,1.33-3.094,3.472c0.457,0.458,1.045,1.048,1.499,1.502
		c1.288,0.209,2.238,0.026,2.875-0.908c7.969,0,15.88,0,23.858,0C115.998,161.671,116.399,161.37,116.751,161.019z M90.482,160.949
		c0.175-0.176,0.258-0.418,0.231-0.756c-0.236-0.194-0.397-0.516-0.697-0.606c0.3,0.089,0.462,0.411,0.698,0.605
		C90.74,160.531,90.657,160.773,90.482,160.949z"/>
	<path d="M139.428,143.233c0-0.564,0-1.043,0-1.515c-0.498-0.856-1.165-1.535-1.897-1.958c-1.935-0.463-2.808,0.723-3.601,1.937
		c0,0.547,0,1.021,0,1.565c0.372,0.44,0.77,0.909,1.164,1.374c0,1.429,0,2.864,0,4.285c-6.599,6.599-13.184,13.184-19.817,19.817
		c-0.881-0.236-1.476,0.29-2.095,0.873c-0.728,0.686-0.66,1.514-0.617,2.287c0.432,0.846,1.005,1.45,1.87,1.846
		c0.395,0,0.874,0,1.354,0c1.025-0.668,1.996-1.372,1.809-2.769c5.552-5.552,11.063-11.063,16.574-16.574
		c1.102-1.102,2.192-2.218,3.312-3.301c0.538-0.52,0.776-1.097,0.755-1.855c-0.043-1.556-0.013-3.114-0.013-4.594
		C138.671,144.129,139.07,143.657,139.428,143.233z"/>
	<path d="M271.658,199.064c0-4.313-0.016-8.631,0.014-12.949c0.006-0.842-0.249-1.47-0.847-2.06
		c-3.017-2.978-6.003-5.986-9.001-8.983c-0.017-1.354-0.387-1.902-1.87-2.766c-1.892-0.364-3.578,1.303-3.189,3.127
		c0.43,0.9,1.022,1.487,1.943,1.935c0.199,0,0.547,0,0.853,0c3.011,3.011,5.98,5.98,8.95,8.949c0,4.267,0,8.535,0,12.775
		c-0.48,0.48-0.932,0.932-1.391,1.391c-0.086,0.476-0.24,0.959-0.243,1.442c-0.003,0.486,0.143,0.973,0.225,1.462
		c0.507,0.507,1.016,1.016,1.537,1.537c0.469,0.085,0.952,0.238,1.435,0.241c0.486,0.003,0.973-0.143,1.466-0.225
		c0.503-0.505,1.01-1.016,1.388-1.396c0.581-1.129,0.482-2.126,0.093-3.119C272.568,199.973,272.115,199.521,271.658,199.064z"/>
	<path d="M23.515,49.561c0,5.141,0,10.25,0,15.278c-0.344,0.45-0.647,0.846-0.93,1.217c-0.098,0.947-0.029,1.76,0.691,2.496
		c0.746,0.764,1.58,0.904,2.472,0.786c0.844-0.41,1.434-0.997,1.825-1.814c0.17-1.025-0.02-1.972-0.924-2.59
		c0-5.184,0-10.292,0-15.453c0.46-0.452,0.943-0.926,1.432-1.406c0.266-1.403,0.266-1.403-0.037-2.833
		c-0.532-0.545-1.033-1.058-1.436-1.471c-1.115-0.474-2.11-0.423-3.089,0.026c-0.452,0.452-0.903,0.903-1.365,1.365
		c-0.404,1.047-0.458,2.015-0.098,3.028C22.548,48.652,23.04,49.115,23.515,49.561z"/>
	<path d="M26.639,199.065c0-5.03,0-10.06-0.001-15.091c0.986-1.037,0.986-1.037,0.928-2.651c-0.412-0.818-0.987-1.418-1.853-1.818
		c-0.391,0-0.87,0-1.266,0c-0.907,0.404-1.478,1.054-1.868,1.819c0,0.515,0,0.989,0,1.473c0.305,0.397,0.608,0.792,0.939,1.223
		c0,4.973,0,10.003,0,15.025c-0.484,0.484-0.963,0.963-1.435,1.435c0.064,0.525-0.285,0.943-0.279,1.471
		c0.006,0.524,0.316,0.947,0.293,1.449c0.508,0.508,1.016,1.016,1.524,1.524c2.665,0.625,2.855,0.089,4.285-1.369
		c0.563-1.152,0.5-2.148,0.089-3.137C27.543,199.969,27.091,199.517,26.639,199.065z"/>
	<path d="M152.098,227.72c0.297-0.315,0.598-0.634,0.881-0.934c5.947,0,11.862,0,17.773,0c0.316,0.316,0.627,0.627,0.946,0.946
		c0.629,0,1.266,0,1.84,0c0.56-0.56,1.092-1.092,1.631-1.631c0-0.604,0-1.239,0-1.855c-0.526-0.527-1.035-1.036-1.544-1.545
		c-0.64,0-1.28,0-2.083,0c-0.251,0.254-0.583,0.59-0.922,0.934c-5.865,0-11.775,0-17.74,0c-0.28-0.309-0.574-0.632-0.836-0.921
		c-0.69,0-1.326,0-1.949,0c-0.521,0.521-1.03,1.03-1.543,1.543c0,0.634,0,1.273,0,1.807c0.583,0.583,1.115,1.115,1.656,1.656
		C150.802,227.72,151.437,227.72,152.098,227.72z"/>
	<path d="M99.704,62.147c0.629,0,1.267,0,1.838,0c0.561-0.561,1.093-1.093,1.632-1.633c0-0.603,0-1.238,0-1.854
		c-0.526-0.527-1.035-1.036-1.543-1.544c-0.4,0-0.8,0-1.199,0c-1.837-1.837-3.681-3.669-5.508-5.516
		c-0.489-0.495-1.024-0.742-1.742-0.735c-2.874,0.029-5.747,0.012-8.605,0.012c-0.331-0.338-0.639-0.651-0.94-0.958
		c-0.65,0-1.289,0-1.769,0c-0.613,0.613-1.145,1.144-1.688,1.687c0,0.582,0,1.214,0,1.735c0.562,0.59,1.057,1.109,1.53,1.606
		c0.669,0,1.306,0,1.932,0c0.321-0.321,0.632-0.632,0.946-0.946c2.714,0,5.432,0,8.115,0c1.822,1.822,3.628,3.628,5.456,5.456
		c0,0.363,0,0.761,0,1.149C98.678,61.121,99.187,61.63,99.704,62.147z"/>
	<path d="M94.529,181.221c0,0.304,0,0.698,0,0.987c-0.654,0.654-1.245,1.246-1.843,1.843c-3.888,0-7.804,0-11.706,0
		c-0.324-0.324-0.635-0.635-0.946-0.946c-0.64,0-1.279,0-1.778,0c-0.603,0.603-1.135,1.135-1.677,1.678c0,0.587,0,1.22,0,1.769
		c0.552,0.57,1.051,1.085,1.534,1.583c0.663,0,1.3,0,1.929,0c0.319-0.319,0.63-0.63,0.951-0.951c4.067,0,8.145-0.012,12.222,0.012
		c0.674,0.004,1.19-0.207,1.646-0.676c0.641-0.659,1.298-1.303,1.96-1.965c0.385,0,0.782,0,1.118,0
		c0.621-0.62,1.127-1.127,1.639-1.638c0-0.61,0-1.245,0-1.867c-0.523-0.523-1.032-1.032-1.543-1.543c-0.637,0-1.276,0-1.791,0
		C95.649,180.101,95.117,180.633,94.529,181.221z"/>
	<path d="M165.231,28.322c-3.018-3.018-5.954-5.959-8.899-8.892c-0.352-0.35-0.754-0.651-1.136-0.978c-0.781,0-1.53,0-2.354,0
		c-0.274-0.304-0.565-0.627-0.823-0.915c-0.682,0-1.316,0-1.916,0c-0.537,0.532-1.047,1.039-1.554,1.541c0,0.645,0,1.284,0,1.921
		c0.51,0.51,1.019,1.019,1.532,1.532c0.664,0,1.332,0,2.052,0c0.281-0.309,0.574-0.632,0.837-0.921c0.369,0,0.685,0,0.956,0
		c3.024,3.022,6.02,6.014,9.025,9.017c0,0.384,0,0.782,0,1.175c0.514,0.514,1.022,1.022,1.525,1.525c0.675,0,1.343,0,1.893,0
		c0.593-0.566,1.111-1.06,1.604-1.53c0-0.673,0-1.309,0-1.932c-0.521-0.521-1.03-1.03-1.543-1.543
		C166.037,28.322,165.639,28.322,165.231,28.322z"/>
	<path d="M252.994,105.041c-0.913-0.896-1.801-1.816-2.72-2.706c-0.411-0.398-0.871-0.747-1.27-1.085c-0.799,0-1.512,0-2.265,0
		c-0.289-0.311-0.587-0.632-0.867-0.933c-0.669,0-1.307,0-1.938,0c-0.515,0.515-1.024,1.024-1.522,1.522c0,0.679,0,1.347,0,1.901
		c0.578,0.578,1.083,1.084,1.595,1.596c0.609,0,1.245,0,1.867,0c0.325-0.325,0.635-0.635,0.904-0.904c0.392,0,0.743,0,0.939,0
		c0.996,0.995,1.897,1.896,2.806,2.805c0,1.48,0,2.994,0,4.513c-0.32,0.312-0.635,0.618-0.94,0.915c0,0.654,0,1.292,0,1.928
		c0.512,0.512,1.02,1.02,1.529,1.529c0.668,0,1.336,0,1.891,0c0.591-0.563,1.11-1.057,1.607-1.53c0-0.669,0-1.306,0-1.932
		c-0.321-0.321-0.632-0.632-0.95-0.95c0-1.671-0.025-3.349,0.012-5.025C253.686,106.011,253.459,105.498,252.994,105.041z"/>
	<path d="M233.132,51.35c0.663,0,1.301,0,1.934,0c0.514-0.514,1.023-1.023,1.523-1.523c0-0.678,0-1.346,0-1.899
		c-0.578-0.579-1.085-1.085-1.596-1.597c-0.609,0-1.245,0-1.875,0c-0.319,0.323-0.629,0.635-0.936,0.946c-3.122,0-6.241,0-9.52,0
		c-0.853,0.817-1.79,1.713-2.753,2.635c-0.355,0-0.753,0-1.046,0c-0.588,0.588-1.12,1.12-1.66,1.661c0,0.597,0,1.231,0,1.82
		c0.537,0.545,1.042,1.056,1.539,1.561c0.65,0,1.289,0,1.924,0c0.512-0.513,1.021-1.021,1.573-1.573c0-0.386,0-0.816,0-1.087
		c0.689-0.689,1.279-1.279,1.877-1.877c2.677,0,5.39,0,8.121,0C232.54,50.733,232.844,51.049,233.132,51.35z"/>
	<path d="M217.063,179.507c-0.645,0-1.285,0-1.766,0c-0.612,0.612-1.144,1.144-1.687,1.687c0,0.582,0,1.215,0,1.746
		c0.559,0.582,1.056,1.099,1.552,1.616c0.408,0,0.805,0,1.191,0c0.661,0.661,1.318,1.305,1.959,1.964
		c0.455,0.468,0.971,0.684,1.645,0.677c2.877-0.028,5.755-0.012,8.624-0.012c0.32,0.32,0.631,0.631,0.951,0.951
		c0.628,0,1.266,0,1.843,0c0.558-0.558,1.09-1.09,1.629-1.629c0-0.605,0-1.24,0-1.858c-0.526-0.526-1.034-1.035-1.543-1.543
		c-0.64,0-1.28,0-2.083,0c-0.251,0.254-0.583,0.591-0.919,0.932c-2.671,0-5.382,0-7.96,0c-0.671-0.671-1.261-1.261-1.896-1.896
		c0-0.324,0-0.719,0-1.08C218.071,180.525,217.565,180.014,217.063,179.507z"/>
	<path d="M190.027,141.66c-0.474-0.83-1.159-1.49-2.007-1.991c-0.474,0-0.953,0-1.425,0c-0.851,0.5-1.542,1.153-1.943,1.868
		c-0.356,1.48,0.206,2.364,1.079,3.034c0,3.506,0,6.934,0,10.265c-0.353,0.466-0.655,0.863-0.885,1.168
		c-0.357,1.707,0.479,2.664,1.759,3.324c0.512,0,0.986,0,1.405,0c0.81-0.439,1.425-0.999,1.813-1.873c0-0.39,0-0.868,0-1.387
		c-0.308-0.398-0.633-0.82-0.94-1.217c0-3.449,0-6.875,0-10.365C189.949,143.858,190.232,142.866,190.027,141.66z"/>
	<path d="M50.522,114.705c-0.392,0-0.79,0-1.09,0c-0.584,0.584-1.116,1.117-1.656,1.657c0,0.598,0,1.233,0,1.831
		c0.533,0.538,1.039,1.049,1.54,1.556c0.646,0,1.285,0,1.754,0c0.626-0.609,1.165-1.134,1.753-1.706c0-0.323,0-0.715,0-1.079
		c1.751-1.751,3.479-3.47,5.195-5.202c0.378-0.381,0.711-0.807,1.018-1.158c0-0.816,0-1.535,0-2.253
		c0.312-0.312,0.623-0.623,0.929-0.929c0-0.673,0-1.341,0-1.894c-0.565-0.591-1.059-1.109-1.53-1.603c-0.672,0-1.308,0-1.932,0
		c-0.521,0.521-1.03,1.03-1.543,1.543c0,0.633,0,1.272,0,2.041c0.271,0.261,0.611,0.589,0.955,0.92c0,0.27,0,0.55,0,0.883
		C54.088,111.138,52.308,112.919,50.522,114.705z"/>
	<path d="M10.859,31.917c2.451,0.164,4.761-2.328,4.768-4.65c0.007-2.443-2.327-4.673-4.588-4.736
		c-2.49-0.07-4.777,2.312-4.828,4.616C6.157,29.595,8.526,32.021,10.859,31.917z"/>
	<path d="M39.075,31.942c2.575,0.092,4.805-2.348,4.868-4.573c0.072-2.518-2.32-4.887-4.606-4.811
		c-2.455-0.184-4.774,2.282-4.808,4.608C34.494,29.633,36.841,31.863,39.075,31.942z"/>
	<path d="M255.879,31.917c2.451,0.164,4.761-2.328,4.768-4.65c0.007-2.443-2.327-4.673-4.588-4.736
		c-2.49-0.07-4.777,2.312-4.828,4.616C251.177,29.595,253.546,32.021,255.879,31.917z"/>
	<path d="M283.882,31.944c2.524,0.075,4.785-2.324,4.842-4.602c0.062-2.461-2.309-4.771-4.633-4.813
		c-2.451-0.044-4.87,2.341-4.754,4.665C279.194,29.651,281.64,31.877,283.882,31.944z"/>
	<path d="M11.007,216.914c-2.446-0.053-4.872,2.317-4.767,4.651c-0.162,2.45,2.329,4.76,4.652,4.765
		c2.438,0.006,4.671-2.324,4.734-4.59C15.695,219.256,13.317,216.963,11.007,216.914z"/>
	<path d="M39.278,216.914c-2.456-0.014-4.681,2.332-4.747,4.577c-0.074,2.518,2.322,4.783,4.605,4.839
		c2.458,0.06,4.876-2.309,4.781-4.637C44.086,219.238,41.595,216.927,39.278,216.914z"/>
	<path d="M284.143,216.915c-2.505-0.072-4.78,2.318-4.834,4.61c-0.057,2.452,2.312,4.875,4.642,4.776
		c2.453,0.167,4.764-2.325,4.774-4.644C288.735,219.205,286.393,216.98,284.143,216.915z"/>
	<path d="M256.074,216.916c-2.526-0.075-4.785,2.325-4.842,4.601c-0.062,2.462,2.309,4.771,4.633,4.813
		c2.45,0.044,4.87-2.339,4.754-4.664C260.761,219.209,258.316,216.983,256.074,216.916z"/>
	<path d="M212.881,126.932c0,0.751,0,1.543,0,2.315c0.527,0.527,1.034,1.035,1.542,1.543c0.798,0,1.595,0,2.278,0
		c0.589-0.589,1.12-1.12,1.662-1.662c0-0.751,0-1.544,0-2.315c-0.527-0.528-1.034-1.035-1.542-1.543c-0.798,0-1.595,0-2.278,0
		C213.955,125.858,213.423,126.39,212.881,126.932z"/>
	<path d="M209.5,130.789c0.59-0.59,1.121-1.121,1.663-1.663c0-0.75,0-1.543,0-2.312c-0.528-0.529-1.035-1.037-1.542-1.544
		c-0.798,0-1.595,0-2.276,0c-0.59,0.59-1.121,1.121-1.663,1.663c0,0.75,0,1.543,0,2.312c0.528,0.529,1.035,1.037,1.542,1.544
		C208.022,130.789,208.819,130.789,209.5,130.789z"/>
	<path d="M218.371,112.18c-0.518-0.518-1.026-1.026-1.517-1.517c-0.843,0-1.67,0-2.359,0c-0.607,0.572-1.127,1.062-1.622,1.528
		c0,0.832,0,1.627,0,2.411c0.518,0.518,1.026,1.026,1.517,1.517c0.843,0,1.67,0,2.374,0c0.596-0.568,1.113-1.06,1.607-1.53
		C218.371,113.758,218.371,112.964,218.371,112.18z"/>
	<path d="M218.364,119.612c-0.526-0.526-1.033-1.033-1.541-1.541c-0.797,0-1.595,0-2.284,0c-0.585,0.585-1.116,1.116-1.658,1.658
		c0,0.752,0,1.545,0,2.319c0.526,0.526,1.033,1.033,1.541,1.541c0.797,0,1.595,0,2.284,0c0.585-0.585,1.116-1.116,1.658-1.658
		C218.364,121.179,218.364,120.386,218.364,119.612z"/>
	<path d="M205.663,114.469c0.589,0.589,1.12,1.12,1.662,1.662c0.751,0,1.544,0,2.315,0c0.528-0.527,1.035-1.034,1.543-1.542
		c0-0.798,0-1.595,0-2.278c-0.589-0.589-1.12-1.12-1.662-1.662c-0.751,0-1.543,0-2.315,0c-0.527,0.527-1.035,1.034-1.543,1.542
		C205.663,112.989,205.663,113.786,205.663,114.469z"/>
	<path d="M209.556,123.59c0.607-0.585,1.122-1.082,1.619-1.561c0-0.822,0-1.618,0-2.406c-0.515-0.515-1.023-1.022-1.524-1.524
		c-0.833,0-1.659,0-2.379,0c-0.586,0.56-1.103,1.054-1.601,1.531c0,0.824,0,1.619,0,2.232c0.625,0.625,1.155,1.155,1.728,1.728
		C208.068,123.59,208.826,123.59,209.556,123.59z"/>
	<path d="M207.927,145.093c2.053,0.443,2.941-0.714,3.642-1.834c0.335-1.373-0.236-2.181-1.048-2.965
		c-0.717-0.692-1.52-0.651-2.349-0.607c-1.815,1.265-2.209,1.781-1.995,3.657C206.75,143.915,207.423,144.589,207.927,145.093z"/>
	<path d="M193.791,145.188c0.473,0,0.953,0,1.426,0c0.854-0.499,1.533-1.166,1.993-1.962c0.4-1.854-0.745-2.752-1.978-3.537
		c-0.542,0-1.016,0-1.457,0c-1.29,0.832-2.375,1.741-1.973,3.543C192.258,144.022,192.937,144.689,193.791,145.188z"/>
	<path d="M177.37,143.171c1.293,1.844,1.766,2.175,3.64,1.993c0.576-0.576,1.249-1.249,1.762-1.762
		c0.441-2.042-0.707-2.936-1.738-3.582c-1.479-0.44-2.269,0.182-3.054,0.984C177.284,141.514,177.307,142.319,177.37,143.171z"/>
	<path d="M173.64,139.762c-2.042-0.441-2.936,0.707-3.581,1.738c-0.44,1.479,0.182,2.269,0.984,3.054
		c0.71,0.695,1.514,0.672,2.317,0.613c1.333-0.807,2.402-1.727,1.971-3.715C174.826,140.948,174.152,140.275,173.64,139.762z"/>
	<path d="M162.707,143.148c0.583,0.913,1.169,1.499,1.908,1.952c1.923,0.46,2.797-0.726,3.611-1.973c0-0.478,0-0.918,0-1.399
		c-1.276-1.841-1.827-2.256-3.501-2.038c-0.854,0.493-1.52,1.172-2.019,2.026C162.707,142.189,162.707,142.668,162.707,143.148z"/>
	<path d="M157.558,145.188c0.469,0,0.949,0,1.349,0c0.949-0.476,1.591-1.18,2.031-1.906c0.46-1.924-0.725-2.799-1.941-3.592
		c-0.544,0-1.018,0-1.459,0c-1.289,0.832-2.376,1.74-2.008,3.387C155.978,144.065,156.72,144.669,157.558,145.188z"/>
	<path d="M119.609,143.407c0.501,0.501,1.174,1.174,1.687,1.687c2.042,0.442,2.937-0.707,3.582-1.738
		c0.44-1.478-0.182-2.269-0.984-3.054c-0.71-0.695-1.514-0.672-2.366-0.609C120.271,140.512,119.166,141.411,119.609,143.407z"/>
	<path d="M112.943,140.804c-0.689,0.715-0.67,1.515-0.608,2.367c1.292,1.843,1.766,2.176,3.64,1.993
		c0.576-0.576,1.249-1.249,1.762-1.762c0.441-2.042-0.707-2.936-1.826-3.636C114.534,139.416,113.727,139.99,112.943,140.804z"/>
	<path d="M110.006,144.047c0.692-0.717,0.651-1.52,0.607-2.347c-0.831-1.278-1.732-2.38-3.721-1.932
		c-0.508,0.508-1.181,1.181-1.685,1.685c-0.443,2.053,0.714,2.941,1.834,3.642C108.414,145.429,109.222,144.859,110.006,144.047z"/>
	<path d="M164.726,101.971c1.579,0.194,2.176-0.038,3.5-2.08c0-0.44,0-0.879,0-1.31c-0.839-1.394-1.771-2.439-3.557-2.056
		c-0.798,0.46-1.464,1.14-1.963,1.994c0,0.473,0,0.952,0,1.426C163.206,100.799,163.872,101.478,164.726,101.971z"/>
	<path d="M207.308,101.369c0.537,0.559,1.183,0.699,1.903,0.615c0.292-0.034,0.636-0.076,0.848-0.248
		c0.49-0.398,0.947-0.85,1.348-1.337c0.173-0.21,0.213-0.556,0.246-0.848c0.04-0.351,0.01-0.711,0.01-1.025
		c-0.843-1.292-1.742-2.399-3.74-1.955c-0.5,0.5-1.173,1.173-1.78,1.78c0,0.345,0.025,0.546-0.004,0.74
		C205.983,100.135,206.685,100.72,207.308,101.369z"/>
	<path d="M203.59,101.112c0.747-0.745,0.988-1.546,0.832-2.646c-0.807-1.241-1.708-2.341-3.697-1.896
		c-0.508,0.508-1.181,1.181-1.686,1.686c-0.442,2.052,0.714,2.94,1.907,3.688C202.051,102.116,202.846,101.855,203.59,101.112z"/>
	<path d="M173.507,96.57c-1.378-0.351-2.185,0.223-2.969,1.037c-0.689,0.715-0.671,1.515-0.608,2.367
		c0.819,1.256,1.719,2.361,3.714,1.919c0.501-0.501,1.174-1.174,1.687-1.687C175.773,98.164,174.625,97.27,173.507,96.57z"/>
	<path d="M179.307,101.938c1.854,0.4,2.752-0.746,3.537-1.979c0-0.542,0-1.016,0-1.457c-0.832-1.289-1.74-2.376-3.537-1.975
		c-0.792,0.486-1.378,1.072-1.962,1.984c0,0.479,0,0.959,0,1.432C177.844,100.798,178.51,101.478,179.307,101.938z"/>
	<path d="M195.477,101.9c0.515-0.515,1.188-1.188,1.765-1.766c0.164-1.852-0.062-2.328-2.04-3.624
		c-1.048-0.165-1.841,0.1-2.585,0.841c-0.747,0.745-0.986,1.547-0.842,2.569C192.572,101.277,193.507,102.318,195.477,101.9z"/>
	<path d="M4.992,238.101c-1.065,0-2.051,0-3.053,0c0,1.027,0,2.013,0,3.037c1.092,0,2.078,0,3.1,0c0-0.554,0.009-1.067-0.003-1.58
		C5.025,239.058,5.097,238.548,4.992,238.101z"/>
</g>
</svg>
